<svg id="Capa_1" data-name="Capa 1" xmlns="http://www.w3.org/2000/svg" xmlns:xlink="http://www.w3.org/1999/xlink" viewBox="0 0 24 24"><defs><style>.cls-1{fill:url(#Degradado_sin_nombre_6);}.cls-2{fill:#fff;}</style><linearGradient id="Degradado_sin_nombre_6" x1="949.62" y1="-773.49" x2="973.62" y2="-773.49" gradientTransform="translate(-949.62 785.49)" gradientUnits="userSpaceOnUse"><stop offset="0" stop-color="#7cd235"/><stop offset="1" stop-color="#2bb34f"/></linearGradient></defs><rect class="cls-1" width="24" height="24" rx="2.33" transform="translate(24) rotate(90)"/><path class="cls-2" d="M8.64,11.76h3.52v5a11,11,0,0,1-1.67.4,12.74,12.74,0,0,1-2,.13,4.76,4.76,0,0,1-3.65-1.39A5.53,5.53,0,0,1,3.56,12a5.93,5.93,0,0,1,.65-2.82A4.32,4.32,0,0,1,6.07,7.33a6,6,0,0,1,2.85-.64A7.7,7.7,0,0,1,12,7.3l-.47,1.06a6.81,6.81,0,0,0-2.69-.6A3.86,3.86,0,0,0,5.89,8.89,4.37,4.37,0,0,0,4.83,12a4.47,4.47,0,0,0,1,3.18,3.93,3.93,0,0,0,3,1.08A8.62,8.62,0,0,0,11,16V12.83H8.64Z"/><path class="cls-2" d="M16.67,17.17H14.52V6.84h5.92V8.63H16.67V11.3h3.51v1.79H16.67Z"/></svg>