<?xml version="1.0" encoding="utf-8"?>
<!-- Generator: Adobe Illustrator 25.3.1, SVG Export Plug-In . SVG Version: 6.00 Build 0)  -->
<svg version="1.1" id="Capa_1" xmlns="http://www.w3.org/2000/svg" xmlns:xlink="http://www.w3.org/1999/xlink" x="0px" y="0px"
	 viewBox="0 0 16 16" style="enable-background:new 0 0 16 16;" xml:space="preserve">
<path class="st0" d="M2.5,0.5C2.5,0.2,2.7,0,3,0h10c0.3,0,0.5,0.2,0.5,0.5c0,0.5,0,1,0,1.5c1.1,0.2,2,0.9,2.3,2c0.4,1,0.1,2.2-0.6,3
	c-0.7,0.8-1.8,1.2-2.9,0.9c-0.8,1.9-1.9,2.8-2.8,3v2.2l1.4,0.4c0.2,0,0.4,0.1,0.5,0.3l1.8,1.4c0.2,0.1,0.2,0.4,0.2,0.6
	C13.4,15.9,13.2,16,13,16H3c-0.2,0-0.4-0.1-0.5-0.3c-0.1-0.2,0-0.4,0.2-0.6l1.8-1.4c0.2-0.1,0.3-0.2,0.5-0.3l1.4-0.4v-2.2
	c-1-0.2-2-1.1-2.8-3C2.6,8.2,1.5,7.8,0.8,7C0,6.2-0.2,5,0.2,4c0.4-1,1.3-1.8,2.3-2C2.5,1.5,2.5,1,2.5,0.5z M2.6,3
	C1.5,3.2,0.8,4.3,1,5.4C1.2,6.5,2.2,7.2,3.3,7C3,5.9,2.7,4.6,2.6,3z M15,5.4c-0.2,1.1-1.2,1.8-2.3,1.6c0.3-1,0.6-2.3,0.7-3.9
	C14.5,3.2,15.2,4.3,15,5.4z"/>
</svg>
