<?xml version="1.0" encoding="utf-8"?>
<!-- Generator: Adobe Illustrator 25.3.1, SVG Export Plug-In . SVG Version: 6.00 Build 0)  -->
<svg version="1.1" id="Capa_1" xmlns="http://www.w3.org/2000/svg" xmlns:xlink="http://www.w3.org/1999/xlink" x="0px" y="0px"
	 viewBox="0 0 13 16" style="enable-background:new 0 0 13 16;" xml:space="preserve">
<path class="st0" d="M12.8,0.1C12.9,0.2,13,0.3,13,0.5V8c0,0.2-0.1,0.4-0.3,0.5L12.5,8l0.2,0.5l0,0l0,0l0,0
	c-0.1,0.1-0.3,0.1-0.4,0.1c-0.3,0.1-0.6,0.2-1,0.4c-0.8,0.3-1.9,0.5-2.7,0.5C7.7,9.5,7,9.2,6.3,9l0,0C5.7,8.7,5.1,8.5,4.5,8.5
	C3.8,8.5,2.9,8.7,2.1,9C1.7,9.1,1.4,9.2,1,9.3v6.2C1,15.8,0.8,16,0.5,16S0,15.8,0,15.5v-15C0,0.2,0.2,0,0.5,0S1,0.2,1,0.5v0.3
	c0.2-0.1,0.5-0.2,0.8-0.3C2.6,0.3,3.7,0,4.5,0C5.3,0,6,0.3,6.6,0.5l0,0C7.3,0.8,7.8,1,8.5,1c0.7,0,1.6-0.2,2.4-0.5
	c0.5-0.1,0.9-0.3,1.3-0.5l0,0l0,0h0"/>
</svg>
