<?xml version="1.0" encoding="utf-8"?>
<!-- Generator: Adobe Illustrator 25.3.1, SVG Export Plug-In . SVG Version: 6.00 Build 0)  -->
<svg version="1.1" id="Capa_1" xmlns="http://www.w3.org/2000/svg" xmlns:xlink="http://www.w3.org/1999/xlink" x="0px" y="0px"
	 viewBox="0 0 16 12" style="enable-background:new 0 0 16 12;" xml:space="preserve">
<g>
	<path class="st0" d="M10,10.5c0,0.3-0.2,0.5-0.5,0.5h-8C1.2,11,1,10.8,1,10.5v-9C1,1.2,1.2,1,1.5,1h8C9.8,1,10,1.2,10,1.5v2
		C10,3.8,10.2,4,10.5,4S11,3.8,11,3.5v-2C11,0.7,10.3,0,9.5,0h-8C0.7,0,0,0.7,0,1.5v9C0,11.3,0.7,12,1.5,12h8c0.8,0,1.5-0.7,1.5-1.5
		v-2C11,8.2,10.8,8,10.5,8S10,8.2,10,8.5V10.5z"/>
	<path class="st0" d="M15.9,6.4C16,6.3,16,6.1,16,6S16,5.7,15.9,5.6l-3-3c-0.2-0.2-0.5-0.2-0.7,0s-0.2,0.5,0,0.7l2.1,2.1H5.5
		C5.2,5.5,5,5.7,5,6s0.2,0.5,0.5,0.5h8.8l-2.1,2.1c-0.2,0.2-0.2,0.5,0,0.7s0.5,0.2,0.7,0L15.9,6.4z"/>
</g>
</svg>
