<svg id="Capa_1" data-name="Capa 1" xmlns="http://www.w3.org/2000/svg" viewBox="0 0 48 39.84"><defs><style>.cls-1{fill:#fff;}</style></defs><path class="cls-1" d="M24,39.84a69.2,69.2,0,0,1-9-.58l-6.37-.84A8.76,8.76,0,0,1,0,29.67V10.17A8.76,8.76,0,0,1,8.65,1.42L15,.59a68.78,68.78,0,0,1,18,0l6.37.83A8.76,8.76,0,0,1,48,10.17v19.5a8.76,8.76,0,0,1-8.65,8.75L33,39.26A69.2,69.2,0,0,1,24,39.84ZM8.75,4.42A5.76,5.76,0,0,0,3,10.17v19.5a5.76,5.76,0,0,0,5.75,5.75H9l6.46.85a65.87,65.87,0,0,0,17.18,0l6.66-.86A5.76,5.76,0,0,0,45,29.67V10.17a5.76,5.76,0,0,0-5.75-5.75h-.2l-6.46-.85a65.87,65.87,0,0,0-17.18,0Z"/><polygon class="cls-1" points="16 27.92 16 11.92 32 19.92 16 27.92"/></svg>