<svg id="Capa_1" data-name="Capa 1" xmlns="http://www.w3.org/2000/svg" viewBox="0 0 16 16"><defs><style>.cls-1{fill:#fff;}</style></defs><path class="cls-1" d="M16,8a8,8,0,1,1-2.34-5.66A8,8,0,0,1,16,8ZM5.35,4.65a.5.5,0,1,0-.7.7L7.29,8,4.65,10.65a.36.36,0,0,0-.11.16.47.47,0,0,0,0,.38.36.36,0,0,0,.11.16A.47.47,0,0,0,5,11.5a.41.41,0,0,0,.19,0,.36.36,0,0,0,.16-.11L8,8.71l2.65,2.64a.36.36,0,0,0,.16.11.47.47,0,0,0,.38,0,.53.53,0,0,0,.27-.27.47.47,0,0,0,0-.38.36.36,0,0,0-.11-.16L8.71,8l2.64-2.65a.36.36,0,0,0,.11-.16.47.47,0,0,0,0-.38.53.53,0,0,0-.27-.27.47.47,0,0,0-.38,0,.36.36,0,0,0-.16.11L8,7.29Z" transform="translate(0 0)"/></svg>